<mxfile host="app.diagrams.net" agent="Mozilla/5.0 (X11; Linux x86_64) AppleWebKit/537.36 (KHTML, like Gecko) Chrome/135.0.0.0 Safari/537.36" version="26.2.9">
  <diagram name="Page-1" id="pk5txJbdCSHX7Gd8Nlis">
    <mxGraphModel dx="1231" dy="640" grid="1" gridSize="10" guides="1" tooltips="1" connect="1" arrows="1" fold="1" page="1" pageScale="1" pageWidth="850" pageHeight="1100" math="0" shadow="0">
      <root>
        <mxCell id="0" />
        <mxCell id="1" parent="0" />
        <mxCell id="awBSW8nrQ_dZoGzvfm4r-1" value="" style="rounded=0;whiteSpace=wrap;html=1;fillColor=#FFFFFF;strokeColor=#000000;" vertex="1" parent="1">
          <mxGeometry x="80" y="320" width="410" height="440" as="geometry" />
        </mxCell>
        <mxCell id="awBSW8nrQ_dZoGzvfm4r-2" value="" style="whiteSpace=wrap;html=1;aspect=fixed;fillColor=#f5f5f5;strokeColor=#666666;fontColor=#333333;" vertex="1" parent="1">
          <mxGeometry x="227.05" y="170" width="110" height="110" as="geometry" />
        </mxCell>
        <mxCell id="awBSW8nrQ_dZoGzvfm4r-3" value="Benutzer" style="shape=umlActor;verticalLabelPosition=bottom;verticalAlign=top;html=1;outlineConnect=0;" vertex="1" parent="1">
          <mxGeometry x="270" y="180" width="30" height="60" as="geometry" />
        </mxCell>
        <mxCell id="awBSW8nrQ_dZoGzvfm4r-4" style="edgeStyle=orthogonalEdgeStyle;rounded=0;orthogonalLoop=1;jettySize=auto;html=1;exitX=0.5;exitY=0;exitDx=0;exitDy=0;" edge="1" parent="1">
          <mxGeometry relative="1" as="geometry">
            <mxPoint x="295" y="270" as="targetPoint" />
            <mxPoint x="295" y="270" as="sourcePoint" />
          </mxGeometry>
        </mxCell>
        <mxCell id="awBSW8nrQ_dZoGzvfm4r-5" value="" style="endArrow=none;dashed=1;html=1;dashPattern=1 3;strokeWidth=2;rounded=0;exitX=0.5;exitY=0;exitDx=0;exitDy=0;entryX=0.5;entryY=1;entryDx=0;entryDy=0;" edge="1" parent="1" source="awBSW8nrQ_dZoGzvfm4r-7" target="awBSW8nrQ_dZoGzvfm4r-2">
          <mxGeometry width="50" height="50" relative="1" as="geometry">
            <mxPoint x="260" y="340" as="sourcePoint" />
            <mxPoint x="250" y="250" as="targetPoint" />
          </mxGeometry>
        </mxCell>
        <mxCell id="awBSW8nrQ_dZoGzvfm4r-6" value="Will Hautläsion scannen" style="edgeLabel;html=1;align=center;verticalAlign=middle;resizable=0;points=[];" vertex="1" connectable="0" parent="awBSW8nrQ_dZoGzvfm4r-5">
          <mxGeometry x="-0.16" y="-1" relative="1" as="geometry">
            <mxPoint x="1" y="14" as="offset" />
          </mxGeometry>
        </mxCell>
        <mxCell id="awBSW8nrQ_dZoGzvfm4r-7" value="&lt;font size=&quot;1&quot;&gt;&lt;br&gt;&lt;br&gt;Stellt Verbindung zur KI her&lt;br&gt;und gibt die Möglichkeit zur&amp;nbsp;&lt;br&gt;Früherkennung&lt;/font&gt;" style="rounded=0;whiteSpace=wrap;html=1;fillColor=#ffe6cc;strokeColor=#d79b00;" vertex="1" parent="1">
          <mxGeometry x="215.93" y="360" width="132.5" height="80" as="geometry" />
        </mxCell>
        <mxCell id="awBSW8nrQ_dZoGzvfm4r-8" value="&lt;font style=&quot;font-size: 12px;&quot;&gt;Mobile App&lt;/font&gt;" style="text;html=1;align=center;verticalAlign=middle;whiteSpace=wrap;rounded=0;fontSize=9;" vertex="1" parent="1">
          <mxGeometry x="239.55" y="360" width="85" height="30" as="geometry" />
        </mxCell>
        <mxCell id="awBSW8nrQ_dZoGzvfm4r-9" value="&lt;font style=&quot;font-size: 8px;&quot;&gt;[Container: Android-Studio]&lt;/font&gt;" style="text;html=1;align=center;verticalAlign=middle;whiteSpace=wrap;rounded=0;" vertex="1" parent="1">
          <mxGeometry x="224.42000000000002" y="380" width="115.25" height="10" as="geometry" />
        </mxCell>
        <mxCell id="awBSW8nrQ_dZoGzvfm4r-15" value="&lt;div&gt;&lt;br&gt;&lt;/div&gt;&lt;div&gt;&lt;br&gt;&lt;/div&gt;Stellt KI-Funktionalitäten via JSON/HTTPS API zur Verfügung." style="rounded=0;whiteSpace=wrap;html=1;fontSize=10;align=center;fillColor=#d5e8d4;strokeColor=#82b366;" vertex="1" parent="1">
          <mxGeometry x="216.19" y="500" width="132.24" height="80" as="geometry" />
        </mxCell>
        <mxCell id="awBSW8nrQ_dZoGzvfm4r-16" value="&lt;font style=&quot;font-size: 12px;&quot;&gt;KI-Backend&lt;/font&gt;" style="text;html=1;align=center;verticalAlign=middle;whiteSpace=wrap;rounded=0;fontSize=9;" vertex="1" parent="1">
          <mxGeometry x="246.19" y="500" width="72.25" height="20" as="geometry" />
        </mxCell>
        <mxCell id="awBSW8nrQ_dZoGzvfm4r-17" value="&lt;font style=&quot;font-size: 8px;&quot;&gt;[Container: Python]&lt;/font&gt;" style="text;html=1;align=center;verticalAlign=middle;whiteSpace=wrap;rounded=0;" vertex="1" parent="1">
          <mxGeometry x="242.38" y="510" width="79.87" height="20" as="geometry" />
        </mxCell>
        <mxCell id="awBSW8nrQ_dZoGzvfm4r-18" value="&lt;br&gt;&lt;br&gt;Stellt Datenbankfuntkionen mittels JSON/HTTP API zur Verfügung.&lt;div&gt;&lt;/div&gt;" style="rounded=0;whiteSpace=wrap;html=1;fontSize=10;align=center;fillColor=#d5e8d4;strokeColor=#82b366;" vertex="1" parent="1">
          <mxGeometry x="322.24" y="650" width="140" height="80" as="geometry" />
        </mxCell>
        <mxCell id="awBSW8nrQ_dZoGzvfm4r-19" value="&lt;span style=&quot;font-size: 12px;&quot;&gt;Database-API&lt;/span&gt;" style="text;html=1;align=center;verticalAlign=middle;whiteSpace=wrap;rounded=0;fontSize=9;" vertex="1" parent="1">
          <mxGeometry x="347.44" y="650" width="82.11" height="20" as="geometry" />
        </mxCell>
        <mxCell id="awBSW8nrQ_dZoGzvfm4r-20" value="&lt;font style=&quot;font-size: 8px;&quot;&gt;[Container: Typescript]&lt;/font&gt;" style="text;html=1;align=center;verticalAlign=middle;whiteSpace=wrap;rounded=0;" vertex="1" parent="1">
          <mxGeometry x="344.81" y="660" width="83.49" height="20" as="geometry" />
        </mxCell>
        <mxCell id="awBSW8nrQ_dZoGzvfm4r-21" value="&lt;br&gt;Algorithmus für das Zuschneiden von Bildern.&lt;div&gt;&lt;/div&gt;" style="rounded=0;whiteSpace=wrap;html=1;fontSize=10;align=center;fillColor=#d5e8d4;strokeColor=#82b366;" vertex="1" parent="1">
          <mxGeometry x="109.99999999999999" y="650" width="132.24" height="80" as="geometry" />
        </mxCell>
        <mxCell id="awBSW8nrQ_dZoGzvfm4r-22" value="&lt;font style=&quot;font-size: 12px;&quot;&gt;Bilder zuschneiden&lt;/font&gt;" style="text;html=1;align=center;verticalAlign=middle;whiteSpace=wrap;rounded=0;fontSize=9;" vertex="1" parent="1">
          <mxGeometry x="119.99999999999999" y="650" width="112.24" height="20" as="geometry" />
        </mxCell>
        <mxCell id="awBSW8nrQ_dZoGzvfm4r-23" value="&lt;font style=&quot;font-size: 8px;&quot;&gt;[Container: Python]&lt;/font&gt;" style="text;html=1;align=center;verticalAlign=middle;whiteSpace=wrap;rounded=0;" vertex="1" parent="1">
          <mxGeometry x="136.19" y="660" width="79.87" height="20" as="geometry" />
        </mxCell>
        <mxCell id="awBSW8nrQ_dZoGzvfm4r-26" value="" style="endArrow=none;dashed=1;html=1;dashPattern=1 3;strokeWidth=2;rounded=0;entryX=0.5;entryY=1;entryDx=0;entryDy=0;exitX=0.5;exitY=0;exitDx=0;exitDy=0;" edge="1" parent="1" source="awBSW8nrQ_dZoGzvfm4r-16" target="awBSW8nrQ_dZoGzvfm4r-7">
          <mxGeometry width="50" height="50" relative="1" as="geometry">
            <mxPoint x="322.24" y="540" as="sourcePoint" />
            <mxPoint x="372.24" y="490" as="targetPoint" />
          </mxGeometry>
        </mxCell>
        <mxCell id="awBSW8nrQ_dZoGzvfm4r-27" value="Macht API Aufruf&amp;nbsp;&lt;br&gt;[JSON]" style="edgeLabel;html=1;align=center;verticalAlign=middle;resizable=0;points=[];" vertex="1" connectable="0" parent="awBSW8nrQ_dZoGzvfm4r-26">
          <mxGeometry x="0.1567" relative="1" as="geometry">
            <mxPoint as="offset" />
          </mxGeometry>
        </mxCell>
        <mxCell id="awBSW8nrQ_dZoGzvfm4r-28" value="" style="endArrow=none;dashed=1;html=1;dashPattern=1 3;strokeWidth=2;rounded=0;entryX=0.5;entryY=1;entryDx=0;entryDy=0;exitX=0.5;exitY=0;exitDx=0;exitDy=0;" edge="1" parent="1" source="awBSW8nrQ_dZoGzvfm4r-19" target="awBSW8nrQ_dZoGzvfm4r-15">
          <mxGeometry width="50" height="50" relative="1" as="geometry">
            <mxPoint x="292.24" y="590" as="sourcePoint" />
            <mxPoint x="342.24" y="540" as="targetPoint" />
          </mxGeometry>
        </mxCell>
        <mxCell id="awBSW8nrQ_dZoGzvfm4r-29" value="Macht API Aufruf&amp;nbsp;&lt;br&gt;[JSON]" style="edgeLabel;html=1;align=center;verticalAlign=middle;resizable=0;points=[];" vertex="1" connectable="0" parent="awBSW8nrQ_dZoGzvfm4r-28">
          <mxGeometry x="-0.133" relative="1" as="geometry">
            <mxPoint as="offset" />
          </mxGeometry>
        </mxCell>
        <mxCell id="awBSW8nrQ_dZoGzvfm4r-30" value="DermaAI-System" style="text;html=1;align=center;verticalAlign=middle;whiteSpace=wrap;rounded=0;" vertex="1" parent="1">
          <mxGeometry x="380" y="750" width="110" as="geometry" />
        </mxCell>
        <mxCell id="awBSW8nrQ_dZoGzvfm4r-31" value="" style="endArrow=none;dashed=1;html=1;dashPattern=1 3;strokeWidth=2;rounded=0;exitX=0.5;exitY=0;exitDx=0;exitDy=0;entryX=0.5;entryY=1;entryDx=0;entryDy=0;" edge="1" parent="1" source="awBSW8nrQ_dZoGzvfm4r-22" target="awBSW8nrQ_dZoGzvfm4r-15">
          <mxGeometry width="50" height="50" relative="1" as="geometry">
            <mxPoint x="170" y="540" as="sourcePoint" />
            <mxPoint x="220" y="490" as="targetPoint" />
          </mxGeometry>
        </mxCell>
        <mxCell id="awBSW8nrQ_dZoGzvfm4r-32" value="Macht API Aufruf&amp;nbsp;&lt;br&gt;[JSON]" style="edgeLabel;html=1;align=center;verticalAlign=middle;resizable=0;points=[];" vertex="1" connectable="0" parent="awBSW8nrQ_dZoGzvfm4r-31">
          <mxGeometry x="-0.3909" relative="1" as="geometry">
            <mxPoint x="-25" y="-5" as="offset" />
          </mxGeometry>
        </mxCell>
      </root>
    </mxGraphModel>
  </diagram>
</mxfile>
